<?xml version="1.0" standalone="no"?>
<!DOCTYPE svg PUBLIC "-//W3C//DTD SVG 20010904//EN"
 "http://www.w3.org/TR/2001/REC-SVG-20010904/DTD/svg10.dtd">
<svg version="1.0" xmlns="http://www.w3.org/2000/svg"
 width="948.000000pt" height="1132.000000pt" viewBox="0 0 948.000000 1132.000000"
 preserveAspectRatio="xMidYMid meet">

<g transform="translate(0.000000,1132.000000) scale(0.100000,-0.100000)"
fill="#000000" stroke="none">
<path d="M2053 11296 c-59 -19 -104 -49 -152 -101 -50 -54 -61 -81 -61 -144 0
-45 27 -101 48 -101 4 0 17 18 29 39 13 22 37 45 58 55 34 17 38 17 63 0 15
-9 44 -35 64 -56 51 -52 83 -52 99 0 6 21 9 66 7 100 -4 79 12 82 75 12 48
-53 77 -121 77 -179 0 -51 -41 -132 -97 -192 -62 -66 -241 -212 -252 -205 -4
3 -11 26 -13 50 -7 60 -37 116 -78 144 -18 12 -35 21 -36 19 -2 -2 -15 -46
-28 -99 -31 -121 -58 -174 -169 -328 -163 -226 -244 -442 -277 -735 -5 -49
-10 -110 -10 -135 0 -42 5 -35 68 116 79 186 101 227 180 326 77 96 163 182
357 360 163 148 244 230 305 305 53 68 47 42 -12 -49 -71 -109 -134 -184 -298
-353 -167 -174 -232 -248 -303 -347 -112 -157 -211 -386 -254 -588 -25 -117
-25 -404 0 -504 40 -159 114 -298 219 -411 l67 -72 -67 -6 c-127 -10 -239 -73
-282 -156 l-19 -37 59 -12 c32 -7 107 -38 166 -68 86 -46 119 -57 168 -61 l61
-5 -3 -50 c-2 -27 -1 -60 2 -74 14 -55 115 -81 193 -49 19 8 37 15 38 15 2 0
17 -21 34 -47 61 -97 73 -102 96 -45 50 118 177 172 412 172 140 0 235 15 380
59 l123 38 0 -42 c0 -39 -4 -45 -35 -64 -32 -19 -35 -24 -35 -66 0 -38 5 -52
29 -76 l30 -29 -37 -19 c-50 -25 -102 -39 -262 -70 l-135 -26 -3 -42 c-4 -54
19 -108 56 -131 l30 -18 -58 -17 c-91 -26 -183 -110 -205 -184 -6 -23 -5 -23
75 -23 44 0 115 7 156 16 42 8 78 13 81 11 2 -3 -16 -42 -41 -88 -75 -140 -94
-240 -58 -308 34 -67 43 -65 135 29 70 72 177 161 177 147 0 -2 -16 -34 -35
-71 -36 -69 -44 -123 -23 -144 17 -17 160 -15 201 1 54 23 94 64 179 183 45
63 83 112 86 110 12 -13 -74 -213 -120 -278 l-19 -28 230 0 231 0 20 32 c42
69 45 128 15 287 -32 167 -30 263 5 368 26 75 92 154 149 177 38 15 41 19 70
111 34 104 46 154 65 261 l13 72 -73 78 c-39 44 -74 77 -77 74 -2 -3 -53 -79
-113 -170 -204 -311 -422 -551 -620 -683 -96 -63 -194 -114 -194 -99 0 4 55
47 121 97 132 98 291 255 432 427 83 101 282 373 319 436 l17 29 -61 99 c-73
118 -104 185 -148 318 -18 54 -41 106 -52 115 -115 95 -158 167 -166 277 -4
69 1 91 54 211 4 7 -22 26 -65 47 -122 62 -162 115 -241 325 -27 73 -54 141
-60 151 -21 39 -38 20 -60 -68 l-11 -43 -84 66 -84 65 -7 -36 c-26 -138 55
-362 181 -501 47 -53 131 -103 173 -103 36 0 17 -16 -35 -30 -112 -28 -266 -5
-366 54 -154 90 -266 357 -206 490 6 13 33 36 59 50 82 45 91 78 30 108 -74
37 -175 17 -236 -47 -57 -59 -79 -126 -79 -240 0 -161 39 -238 177 -350 48
-38 85 -71 84 -72 -1 -2 -30 7 -65 18 -84 29 -195 103 -295 199 -46 44 -86 80
-89 80 -3 0 -10 -14 -16 -31 -16 -46 -14 -175 4 -243 45 -174 194 -345 362
-417 26 -11 120 -34 208 -50 216 -40 221 -43 99 -59 -135 -17 -292 -9 -364 19
-196 76 -353 302 -426 613 -17 76 -19 78 -52 84 -18 4 -54 4 -80 0 -56 -8
-172 -60 -172 -78 0 -7 44 -55 98 -108 54 -52 132 -140 174 -195 41 -55 100
-124 129 -154 71 -70 213 -163 303 -197 39 -16 72 -29 74 -29 1 -1 -7 -22 -18
-46 -24 -55 -25 -92 -1 -144 32 -70 98 -124 186 -151 l40 -12 -40 -17 c-85
-36 -252 1 -328 73 -39 36 -52 64 -71 151 -22 98 -35 121 -103 177 -32 26 -79
68 -104 92 l-46 44 -11 -31 c-6 -17 -14 -31 -17 -31 -4 0 -54 25 -111 56
l-103 55 -7 -26 c-4 -15 -4 -46 0 -71 3 -24 2 -44 -2 -44 -12 0 -63 56 -109
120 -23 30 -55 68 -72 84 -37 36 -38 30 -15 -82 72 -347 338 -564 799 -648
150 -28 454 -26 591 4 183 39 356 107 505 198 33 20 63 34 65 31 8 -8 -102
-93 -180 -139 -146 -86 -364 -155 -566 -179 -135 -15 -374 -6 -500 20 -342 69
-594 238 -711 476 -52 107 -70 178 -76 310 -12 253 88 454 266 539 60 28 75
31 167 31 l100 0 -13 55 c-29 127 44 201 163 165 64 -19 100 -19 108 1 10 27
6 118 -7 134 -30 37 -52 45 -136 50 l-86 5 75 50 c120 80 214 176 255 259 19
39 37 95 41 124 l7 53 -39 -7 c-22 -4 -50 -11 -63 -16 -13 -5 -25 -7 -27 -5
-2 2 13 28 33 57 51 76 101 205 125 319 26 127 21 346 -10 431 -48 134 -111
212 -210 258 -68 31 -182 40 -249 18z"/>
<path d="M6859 11295 c-59 -19 -143 -94 -173 -154 -40 -80 -49 -141 -43 -290
8 -182 42 -312 127 -481 103 -205 207 -329 394 -469 74 -55 137 -105 141 -110
4 -7 -9 -9 -39 -5 -72 10 -155 -4 -182 -31 -30 -30 -31 -78 -4 -123 24 -39 63
-57 145 -66 88 -10 152 -26 166 -42 9 -11 9 -14 0 -14 -7 0 -23 -11 -36 -25
-21 -20 -25 -34 -25 -80 0 -30 3 -55 8 -55 4 0 30 7 57 16 65 20 168 20 223 0
126 -46 225 -170 284 -356 20 -65 23 -95 23 -220 -1 -138 -2 -150 -34 -243
-19 -55 -52 -125 -77 -162 -48 -72 -41 -82 24 -35 79 57 166 215 214 393 20
73 23 105 23 282 0 174 -3 212 -23 289 -46 183 -139 341 -353 596 -311 372
-409 539 -455 774 -17 86 -18 87 -43 81 -47 -11 -72 -36 -99 -93 -18 -40 -26
-74 -26 -119 -1 -35 -4 -63 -8 -63 -3 0 -38 34 -77 76 -136 145 -198 319 -157
440 16 47 94 144 115 144 6 0 8 -24 4 -62 -7 -75 11 -126 51 -147 26 -14 28
-13 90 48 76 76 99 77 143 8 15 -23 28 -44 30 -46 7 -10 56 34 69 63 40 82
-54 210 -196 266 -72 29 -215 36 -281 15z"/>
<path d="M799 10937 c-111 -74 -154 -252 -83 -337 19 -22 22 -31 12 -34 -75
-22 -100 -32 -140 -62 -26 -18 -52 -43 -58 -54 -10 -18 -5 -22 47 -46 52 -23
56 -27 39 -37 -167 -102 -302 -281 -352 -467 -25 -91 -25 -301 -1 -390 24 -88
70 -183 120 -249 101 -135 289 -308 432 -400 87 -55 87 -61 4 -32 -132 45
-263 133 -389 260 -112 112 -180 216 -223 339 -28 79 -31 101 -35 240 -2 83
-7 152 -12 152 -9 0 -35 -60 -50 -115 -18 -66 -24 -271 -11 -385 7 -57 28
-156 47 -218 73 -240 80 -307 39 -362 -41 -55 -34 -76 49 -155 40 -38 86 -89
101 -112 15 -24 31 -43 35 -43 11 0 70 68 82 96 11 24 12 23 39 -24 46 -81
231 -242 297 -259 41 -10 47 9 47 140 0 118 -1 124 -32 180 l-32 58 27 -5 c15
-3 83 -14 152 -25 210 -34 280 -65 280 -124 0 -36 -67 -91 -167 -137 -48 -22
-89 -42 -91 -45 -2 -2 8 -20 24 -40 68 -89 186 -115 278 -61 82 48 121 134
114 250 -11 163 -113 276 -298 330 l-55 16 -1 68 c-1 105 -59 203 -161 273
l-45 31 49 22 c48 23 113 85 113 109 0 28 -175 152 -253 178 -29 10 -51 22
-50 26 1 4 9 26 17 48 8 22 15 57 16 78 0 45 -14 47 -85 16 -99 -44 -201 -8
-225 80 -44 159 100 337 308 380 97 20 103 16 50 -32 -58 -52 -98 -132 -98
-200 0 -66 13 -70 100 -33 12 5 15 -3 16 -43 3 -84 61 -161 121 -161 30 0 79
36 103 75 12 20 35 88 51 151 36 147 59 181 142 205 38 11 87 -9 150 -63 27
-22 49 -39 51 -37 1 2 12 31 25 64 12 33 36 82 53 110 109 176 138 226 138
242 0 33 -74 145 -132 198 -96 89 -234 123 -454 112 -90 -5 -115 -3 -132 9
-43 30 -18 74 42 74 81 0 70 145 -14 187 -39 20 -93 16 -131 -10z"/>
<path d="M8130 10869 c-101 -110 -144 -133 -347 -189 -263 -73 -353 -131 -353
-230 0 -61 98 -213 220 -341 l56 -60 95 3 c84 2 99 -1 132 -21 49 -30 80 -87
106 -196 12 -49 33 -108 46 -130 26 -44 111 -132 120 -123 3 3 14 51 25 108
11 57 21 105 24 107 2 2 19 -4 39 -13 60 -29 70 -16 65 74 -4 57 -14 96 -37
151 -18 40 -31 75 -29 77 9 8 107 -68 161 -124 79 -84 130 -192 131 -278 1
-52 -3 -66 -22 -87 -52 -55 -124 -37 -175 45 -17 26 -34 48 -38 48 -16 0 -49
-79 -49 -115 0 -20 7 -49 15 -66 18 -35 13 -49 -19 -49 -34 0 -116 -59 -138
-100 -15 -27 -18 -50 -16 -97 2 -35 9 -68 14 -73 6 -6 34 -13 62 -17 29 -3 52
-10 52 -14 0 -5 -17 -20 -38 -34 -22 -14 -44 -36 -50 -48 -6 -12 -12 -68 -14
-125 -3 -117 -4 -116 77 -78 148 69 348 271 435 438 169 324 70 706 -258 991
-37 33 -78 63 -92 69 -24 10 -23 11 33 35 31 14 57 32 57 39 0 16 -103 95
-150 114 -25 10 -30 17 -25 34 32 111 37 147 33 221 -5 82 -27 145 -52 145 -7
0 -50 -41 -96 -91z"/>
<path d="M4662 10854 c-57 -40 -71 -151 -27 -216 30 -44 32 -87 6 -143 -58
-128 -271 -181 -421 -105 -37 19 -120 102 -120 120 0 6 9 23 21 39 26 35 35
98 20 144 -38 113 -208 143 -254 44 -34 -70 -19 -132 44 -196 42 -42 49 -55
49 -88 0 -97 -60 -208 -132 -245 -71 -37 -211 -19 -284 37 -48 36 -63 63 -74
129 -12 72 -40 112 -91 127 -82 25 -159 -25 -159 -104 0 -38 6 -46 112 -151
61 -61 142 -153 181 -203 38 -51 71 -93 73 -93 2 0 34 21 71 46 231 155 629
264 1028 281 246 10 470 -21 696 -96 142 -48 230 -91 362 -179 l100 -67 36 45
c19 25 106 115 193 200 188 185 205 215 149 271 -59 58 -184 30 -208 -47 -7
-21 -15 -52 -18 -68 -21 -102 -256 -174 -382 -116 -52 23 -97 90 -113 166 -17
79 -6 115 51 172 47 48 49 52 49 106 0 68 -19 110 -60 131 -40 21 -83 19 -130
-5 -73 -37 -104 -149 -60 -215 27 -41 26 -49 -20 -99 -55 -59 -147 -107 -220
-113 -131 -12 -258 58 -294 162 -22 65 -21 72 14 112 54 61 37 171 -33 213
-40 25 -123 27 -155 4z m102 -90 c22 -22 20 -61 -4 -74 -15 -8 -24 -6 -40 10
-11 11 -20 26 -20 34 0 16 26 46 40 46 5 0 16 -7 24 -16z m750 -70 c30 -30 13
-74 -29 -74 -42 0 -59 44 -29 74 8 9 22 16 29 16 7 0 21 -7 29 -16z m-1489
-10 c9 -9 15 -28 13 -43 -2 -20 -8 -26 -28 -26 -20 0 -26 6 -28 28 -6 54 12
71 43 41z"/>
<path d="M4545 10184 c-16 -2 -73 -9 -125 -15 -259 -30 -537 -134 -689 -258
-25 -20 -51 -41 -58 -46 -11 -9 -6 -29 27 -110 23 -55 45 -104 49 -108 5 -4
62 10 127 33 331 114 679 169 994 157 335 -14 555 -70 746 -191 49 -31 90 -56
93 -56 12 0 113 260 107 275 -16 42 -293 186 -451 234 -130 40 -222 58 -375
76 -111 13 -364 18 -445 9z m229 -130 c19 -18 21 -55 4 -72 -7 -7 -24 -12 -38
-12 -14 0 -31 5 -38 12 -28 28 -2 88 38 88 10 0 26 -7 34 -16z m-296 -20 c41
-29 23 -84 -28 -84 -32 0 -50 17 -50 46 0 24 24 54 43 54 7 0 23 -7 35 -16z
m583 6 c39 -22 13 -90 -35 -90 -47 0 -63 57 -24 84 26 19 33 19 59 6z m-857
-56 c35 -34 11 -86 -39 -86 -56 0 -72 47 -29 81 32 25 47 26 68 5z m1157 -32
c13 -33 -12 -72 -46 -72 -33 0 -61 41 -46 69 25 45 75 47 92 3z m-1417 -78
c21 -21 20 -37 -4 -59 -23 -21 -46 -14 -62 19 -20 46 30 76 66 40z m1650 0
c29 -29 13 -74 -26 -74 -16 0 -38 27 -38 49 0 12 28 41 40 41 5 0 16 -7 24
-16z"/>
<path d="M8827 9769 c22 -115 13 -273 -23 -379 -58 -174 -171 -299 -409 -455
-185 -122 -258 -188 -281 -257 -18 -56 -14 -66 21 -50 25 12 85 17 85 7 0 -2
-15 -25 -32 -50 -32 -45 -33 -51 -36 -159 -3 -85 0 -121 11 -149 15 -35 39
-48 52 -27 3 5 46 37 96 71 107 73 170 133 196 184 l19 37 17 -25 c16 -24 80
-60 132 -73 26 -6 27 -5 22 18 -10 37 9 82 69 170 74 108 74 111 22 157 l-43
39 0 74 c0 70 3 79 72 223 83 172 91 199 99 315 10 137 -27 304 -85 379 -18
24 -18 23 -4 -50z"/>
<path d="M4570 9754 c-245 -30 -461 -72 -537 -105 -51 -22 -99 -84 -184 -239
-34 -63 -71 -127 -81 -142 -10 -14 -18 -29 -18 -33 0 -12 125 -64 205 -86 67
-19 108 -22 250 -23 199 0 275 12 482 79 204 67 281 80 364 65 162 -28 242
-140 242 -340 0 -83 -4 -108 -35 -197 -46 -134 -120 -251 -237 -374 -181 -192
-411 -335 -634 -394 -54 -15 -67 -21 -61 -34 3 -9 15 -59 26 -111 17 -80 19
-119 15 -250 -6 -173 -20 -251 -77 -420 -24 -74 -35 -119 -29 -126 5 -7 33
-22 62 -34 108 -47 289 -9 483 102 184 104 297 202 605 526 l226 237 -33 39
c-71 83 -102 238 -71 347 9 30 44 101 77 157 126 212 169 357 177 587 7 188
-10 297 -61 401 -88 176 -297 294 -621 350 -87 15 -458 27 -535 18z"/>
<path d="M6717 9700 c-38 -12 -57 -29 -57 -50 0 -28 68 -79 128 -96 31 -9 56
-24 63 -36 18 -33 13 -132 -11 -202 -45 -136 -140 -242 -280 -315 -110 -57
-171 -72 -280 -69 l-93 3 84 55 c193 127 297 324 287 543 -3 53 -8 100 -12
104 -22 23 -112 -120 -176 -282 -51 -130 -99 -211 -152 -261 -27 -25 -51 -44
-54 -41 -3 2 6 22 20 42 15 21 31 56 37 79 14 53 7 180 -14 229 -16 37 -17 38
-44 23 -37 -18 -66 -74 -87 -162 -25 -101 -44 -128 -121 -166 l-65 -32 0 -67
c0 -167 -68 -402 -161 -557 -81 -134 -94 -175 -94 -297 1 -89 4 -106 28 -153
15 -29 35 -56 43 -59 8 -3 52 8 97 25 104 40 159 47 233 32 84 -18 141 -50
202 -114 117 -123 160 -314 113 -499 -27 -104 -76 -200 -192 -379 -55 -83 -99
-154 -99 -159 0 -42 81 -139 142 -170 21 -11 55 -21 74 -22 35 -2 37 -1 51 47
16 54 10 53 113 10 40 -17 91 -29 134 -32 l70 -5 -59 69 c-120 141 -216 313
-231 415 -8 56 -6 54 98 -106 190 -291 301 -392 421 -377 l38 4 -28 47 c-14
25 -36 61 -47 80 l-19 33 59 -6 c32 -4 73 -3 89 2 25 7 31 14 33 43 7 68 -15
107 -120 216 -56 56 -99 103 -96 103 4 0 51 -16 107 -35 91 -32 110 -35 211
-35 l111 0 -15 28 c-22 42 -93 103 -175 151 l-73 43 35 24 c31 21 77 93 77
121 0 5 -42 15 -92 21 -146 18 -349 76 -403 116 -15 11 -10 12 40 8 48 -4 61
-2 72 14 23 31 16 87 -16 128 -25 31 -29 43 -24 74 3 20 7 39 10 41 2 3 56 -8
121 -23 90 -21 158 -30 292 -36 96 -5 197 -14 225 -20 74 -17 138 -56 180
-111 20 -27 42 -52 47 -55 16 -10 38 18 44 58 5 31 10 38 23 33 64 -26 138
-12 161 30 12 23 10 91 -4 126 -6 14 2 17 51 21 43 3 87 17 168 55 61 28 131
54 158 58 26 4 47 12 47 17 0 70 -88 181 -178 225 -48 24 -71 28 -147 30 l-89
2 -43 -40 c-86 -79 -224 -154 -360 -196 -78 -24 -105 -27 -238 -27 -116 -1
-166 3 -220 18 -83 22 -200 67 -244 94 l-32 20 89 -6 c84 -4 92 -3 142 24 45
25 141 122 140 142 -1 4 -24 21 -53 37 -45 26 -97 83 -97 105 0 4 19 11 43 14
59 9 180 63 256 115 97 66 214 183 309 310 47 62 125 153 174 201 48 48 88 94
88 102 0 32 -92 85 -164 94 -97 14 -172 -41 -230 -168 -109 -237 -116 -248
-197 -333 -126 -131 -282 -223 -474 -281 -81 -25 -106 -28 -245 -28 -137 -1
-163 2 -224 22 -76 26 -151 61 -143 68 2 2 33 -3 68 -11 101 -25 287 -30 403
-11 414 68 726 351 726 659 0 60 -17 147 -29 147 -4 0 -30 -40 -58 -88 -61
-104 -151 -193 -235 -234 -31 -16 -60 -28 -63 -28 -4 0 17 20 47 45 171 147
231 409 124 549 -50 66 -206 113 -289 86z"/>
<path d="M3800 9557 c-70 -29 -167 -93 -187 -123 -19 -29 -11 -81 18 -118 26
-33 34 -32 64 0 30 32 176 264 167 264 -4 0 -32 -11 -62 -23z"/>
<path d="M4844 9165 c-28 -8 -135 -41 -238 -75 -241 -78 -307 -92 -441 -92
-139 0 -235 20 -370 78 -132 56 -180 64 -217 34 -55 -43 -62 -160 -12 -219 13
-16 53 -46 88 -66 l63 -37 46 -147 c33 -103 61 -171 97 -231 140 -233 298
-380 410 -380 130 0 391 127 549 266 233 206 364 443 365 664 1 108 -25 163
-94 198 -52 26 -163 29 -246 7z m-504 -425 c24 -24 45 -94 69 -240 25 -153 36
-284 23 -279 -21 8 -94 108 -133 182 -39 74 -119 284 -119 310 0 7 26 20 58
29 77 21 79 21 102 -2z m-370 -23 l65 -12 55 -160 c46 -134 68 -181 137 -292
48 -78 76 -134 70 -136 -54 -19 -198 100 -294 243 -61 91 -153 303 -153 354 0
19 28 20 120 3z"/>
<path d="M7629 8707 c-24 -18 -62 -56 -86 -85 -25 -31 -45 -48 -47 -40 -3 7
-7 25 -10 41 -5 21 -12 27 -33 27 -40 0 -100 -69 -161 -187 -73 -139 -105
-173 -207 -223 -113 -56 -142 -93 -105 -130 17 -17 34 -20 113 -20 198 0 397
84 553 232 116 111 179 232 172 334 l-3 49 -50 -74 -50 -74 -6 70 c-7 78 -16
113 -29 113 -5 0 -28 -15 -51 -33z"/>
<path d="M446 8223 c-12 -13 -6 -134 9 -163 26 -51 61 -70 127 -70 102 0 178
58 178 137 0 31 -1 32 -26 23 -38 -15 -150 -12 -190 5 -20 8 -48 28 -64 44
-15 17 -30 27 -34 24z"/>
<path d="M8749 8011 c-23 -23 -29 -39 -29 -70 0 -23 -2 -41 -4 -41 -2 0 -28
11 -59 25 -154 71 -366 71 -549 2 -168 -64 -275 -163 -361 -334 -103 -202
-115 -521 -32 -778 78 -237 175 -377 396 -568 37 -32 40 -37 19 -32 -63 16
-157 72 -222 134 -189 177 -295 401 -329 692 -21 186 2 358 72 523 16 39 27
71 25 73 -2 2 -31 -15 -66 -38 -108 -72 -194 -205 -264 -406 -44 -128 -58
-154 -96 -187 -37 -31 -74 -33 -115 -6 l-30 19 -12 -22 c-16 -29 -16 -70 1
-110 15 -38 76 -94 110 -103 l24 -6 -23 -52 -23 -53 135 -6 c75 -4 176 -7 225
-7 l88 0 0 -610 0 -610 58 -26 c140 -62 266 -163 297 -237 7 -18 16 -52 20
-77 9 -61 25 -110 35 -110 16 0 81 85 91 120 l11 36 52 -18 c70 -24 180 -22
286 5 l85 22 -3 35 c-8 86 -82 194 -160 234 l-44 22 118 49 c145 58 226 98
243 119 10 12 10 26 -4 73 -21 70 -98 237 -115 248 -17 11 -30 -13 -30 -58 0
-53 -13 -72 -60 -91 -54 -21 -55 -21 -31 18 13 21 21 50 21 79 0 52 -26 127
-44 127 -7 0 -40 -43 -74 -95 -96 -148 -179 -194 -357 -202 -89 -4 -104 -2
-133 16 -18 12 -30 26 -27 31 3 6 35 10 70 10 58 0 66 3 81 25 34 52 -11 140
-90 176 l-41 18 60 0 c66 1 91 12 82 32 -4 8 -23 36 -42 63 -53 73 -47 78 53
40 171 -64 286 -64 420 2 109 53 153 134 118 218 l-16 37 -27 -25 c-76 -71
-203 -74 -303 -7 -27 18 18 50 109 77 47 14 90 30 95 35 14 13 -70 117 -112
137 -20 10 -74 34 -120 52 -120 47 -179 99 -89 78 23 -5 78 -8 122 -5 92 6
133 -6 154 -46 18 -34 26 -34 63 4 29 29 30 33 24 90 l-6 59 55 36 c51 32 55
38 55 72 0 47 -36 110 -78 139 -18 12 -57 27 -86 34 l-53 12 13 45 c8 25 14
65 14 89 l0 43 -37 -19 c-105 -53 -261 -68 -338 -32 -84 39 -122 112 -112 211
19 182 140 308 327 341 127 22 293 -16 407 -93 59 -40 85 -70 46 -52 -10 4
-41 9 -70 12 -68 5 -93 -17 -93 -85 0 -91 70 -165 219 -229 34 -15 61 -30 61
-35 0 -5 -9 -23 -20 -41 -40 -65 -22 -97 99 -182 43 -30 94 -76 114 -103 55
-75 104 -186 128 -290 25 -109 31 -109 74 1 72 184 85 449 31 616 -36 109 -46
189 -35 286 5 43 7 80 5 82 -3 2 -25 -5 -49 -16 -49 -22 -76 -60 -78 -109 0
-18 -7 -5 -18 37 -9 36 -39 112 -65 170 -61 133 -76 174 -76 216 0 41 -21 54
-85 54 -38 0 -52 -5 -76 -29z"/>
<path d="M913 7966 c-80 -19 -128 -41 -237 -110 -96 -61 -110 -65 -138 -40
-16 16 -18 15 -25 -2 -45 -119 -93 -229 -101 -232 -6 -2 -13 5 -16 16 -12 37
-53 65 -106 70 -27 2 -50 3 -50 1 0 -2 9 -28 20 -57 30 -80 26 -156 -16 -303
-66 -226 -58 -446 24 -609 20 -41 41 -74 46 -73 6 1 18 37 28 79 39 165 114
270 254 356 45 27 92 59 103 70 40 37 15 126 -40 143 -19 6 -19 8 -4 25 9 10
44 30 78 45 144 65 197 132 197 252 0 35 -2 63 -4 63 -22 0 -141 -45 -170 -65
-50 -34 -45 -16 12 44 57 62 145 115 232 142 215 66 409 34 519 -87 170 -186
60 -425 -210 -459 -60 -7 -164 13 -206 41 -22 14 -23 13 -23 -14 0 -16 12 -51
26 -78 14 -26 22 -50 17 -51 -74 -25 -130 -93 -139 -169 l-6 -51 41 -7 c23 -3
63 -11 89 -16 l47 -11 -3 -94 c-3 -56 0 -95 6 -95 5 0 21 11 36 25 15 14 37
27 49 30 36 7 237 11 237 3 0 -18 -68 -59 -139 -83 -44 -14 -92 -36 -107 -47
-31 -25 -84 -96 -84 -113 0 -6 22 -17 48 -24 27 -6 65 -26 86 -43 42 -35 39
-44 -28 -83 -97 -56 -190 -50 -280 19 -57 43 -67 39 -74 -32 -8 -87 32 -133
169 -196 156 -72 312 -84 462 -36 52 17 99 30 104 30 6 0 3 -27 -8 -66 -10
-37 -16 -71 -13 -75 7 -12 51 -11 92 0 46 14 40 0 -14 -28 -58 -31 -97 -80
-92 -118 l3 -28 90 1 c80 1 105 6 220 46 l130 45 -3 370 -4 370 164 7 c90 3
179 3 197 0 l32 -7 -16 39 c-30 68 -30 72 1 80 55 13 144 66 164 99 22 35 27
104 9 136 -10 19 -10 19 -39 -1 -66 -47 -165 -63 -218 -36 -30 16 -74 60 -90
91 -6 11 -36 95 -67 185 -67 195 -106 269 -175 334 -44 41 -128 91 -138 81 -2
-1 15 -56 38 -121 145 -419 66 -838 -211 -1114 -28 -28 -74 -66 -103 -85 -59
-39 -167 -77 -205 -73 -21 2 -15 7 36 26 184 71 388 378 455 687 21 97 15 334
-10 427 -42 153 -127 291 -237 380 -76 62 -209 131 -305 158 -98 28 -316 36
-407 16z"/>
<path d="M4127 7822 c-9 -60 -30 -148 -47 -197 -16 -49 -30 -98 -30 -108 0
-63 140 -402 162 -395 18 6 53 114 78 243 18 89 21 135 19 254 -4 139 -6 149
-34 206 -19 37 -43 69 -64 83 -60 39 -65 34 -84 -86z"/>
<path d="M5918 7880 c-52 -13 -145 -61 -204 -106 -27 -20 -179 -168 -339 -329
-388 -391 -542 -504 -757 -556 -147 -35 -155 -38 -191 -78 -43 -48 -75 -131
-88 -230 -10 -78 -4 -182 12 -213 6 -11 6 -18 1 -18 -15 0 -62 115 -78 192
-22 103 -2 220 48 291 11 16 19 29 17 30 -2 1 -37 24 -77 51 -118 79 -164 148
-221 332 -32 107 -65 167 -95 172 -25 5 -61 -31 -88 -91 -20 -46 -23 -66 -22
-182 1 -188 24 -265 143 -482 l51 -93 -949 0 -948 0 -6 -72 c-3 -40 -1 -165 5
-278 6 -124 8 -436 4 -785 -22 -2141 -20 -2451 23 -2742 22 -148 87 -424 106
-450 12 -16 15 -16 56 0 77 30 75 17 36 193 -76 339 -80 370 -86 724 -3 179
-2 719 2 1200 7 735 4 1938 -5 2045 l-3 30 930 3 929 2 81 -79 c44 -43 100
-93 124 -110 42 -30 44 -30 75 -14 17 9 76 46 131 83 186 125 155 117 495 121
162 2 691 0 1175 -4 601 -6 927 -5 1030 2 82 6 151 9 153 6 2 -2 -1038 -1050
-2312 -2330 l-2316 -2326 36 -31 c19 -17 46 -52 59 -78 26 -52 67 -198 56
-204 -3 -2 -26 0 -51 4 -58 12 -150 12 -150 2 0 -24 211 -253 332 -360 322
-285 594 -462 1298 -844 157 -85 315 -173 352 -196 36 -22 85 -50 107 -62 l41
-21 213 117 c867 477 1273 745 1581 1044 135 132 249 265 243 284 -2 6 -46 26
-98 45 -52 18 -96 35 -98 37 -2 2 8 28 23 58 32 65 102 131 200 188 39 23 72
43 74 44 2 1 -8 30 -22 65 -14 34 -24 64 -22 67 3 2 77 -33 165 -79 89 -45
160 -83 158 -85 -1 -2 -47 -10 -102 -18 -183 -27 -292 -74 -350 -150 -15 -20
-26 -38 -24 -39 2 -1 33 -17 69 -36 36 -18 104 -54 152 -79 72 -38 100 -47
152 -50 64 -4 65 -5 55 -29 -40 -105 47 -236 156 -236 51 0 88 21 115 65 23
38 20 44 -25 52 -103 20 -83 134 62 365 65 104 109 189 101 197 -3 2 -20 -1
-39 -6 -69 -20 -75 -13 -25 31 85 75 121 186 97 300 -17 83 -63 229 -72 229
-4 0 -27 -37 -51 -82 -54 -104 -95 -150 -159 -177 -97 -42 -195 -40 -248 5
-29 24 -56 88 -45 105 2 4 37 -4 77 -17 96 -34 185 -37 224 -8 45 34 69 78 92
171 57 230 55 152 58 2258 l4 1940 -1263 -2 -1263 -2 75 37 c107 53 165 95
245 176 83 85 144 171 255 366 117 205 185 304 261 381 81 82 154 122 224 123
71 1 116 -25 170 -97 50 -68 51 -66 30 57 -17 99 -39 148 -86 194 -65 63 -175
93 -261 72z m32 -4551 c31 -84 53 -133 61 -131 7 2 71 35 142 73 71 38 132 68
134 65 3 -3 -18 -69 -46 -147 -29 -78 -50 -142 -49 -143 2 -1 71 -24 153 -50
l150 -49 -50 -23 c-27 -13 -94 -44 -148 -69 -54 -24 -96 -48 -94 -52 52 -91
148 -276 144 -280 -3 -3 -69 16 -147 42 -77 26 -147 45 -154 42 -17 -7 -25
-86 -15 -142 4 -22 26 -72 48 -110 66 -113 58 -170 -47 -324 -54 -79 -57 -86
-57 -145 0 -55 5 -69 49 -145 78 -132 73 -204 -22 -319 -64 -77 -75 -106 -68
-179 4 -35 3 -63 -2 -63 -16 0 -71 65 -86 102 -24 56 -20 92 19 178 56 123 48
155 -65 275 -111 117 -114 169 -26 362 62 136 63 175 2 268 -45 68 -66 133
-66 205 0 22 -3 40 -6 40 -4 0 -65 -14 -136 -31 -72 -16 -134 -29 -139 -27 -4
2 26 61 67 131 42 71 74 130 73 131 -2 2 -42 18 -89 36 -105 40 -203 91 -193
100 4 4 70 23 146 41 76 18 143 36 148 40 6 3 -11 65 -41 149 -28 79 -49 145
-46 147 2 2 65 -25 140 -61 l136 -65 14 27 c7 15 35 75 61 135 26 59 50 106
52 104 2 -2 26 -64 53 -138z"/>
<path d="M6015 7546 c-95 -44 -164 -130 -324 -405 -97 -166 -133 -240 -127
-257 9 -24 113 -47 195 -42 62 4 88 11 139 38 112 59 250 232 317 396 28 67
33 151 11 192 -21 41 -68 81 -107 92 -46 13 -47 13 -104 -14z"/>
<path d="M8871 6823 c-42 -126 -43 -130 -40 -241 l4 -113 -42 48 c-44 51 -43
52 -62 -22 -18 -68 -13 -155 16 -267 23 -91 26 -113 17 -147 -10 -38 -10 -41
9 -41 39 0 167 152 224 265 75 148 87 327 32 469 -27 69 -91 176 -104 176 -6
0 -30 -57 -54 -127z"/>
<path d="M531 6885 c-65 -68 -98 -140 -113 -242 -21 -141 26 -308 126 -446 24
-34 57 -75 74 -90 l29 -28 27 32 c64 76 96 180 96 314 0 93 -15 166 -44 223
-25 48 -47 38 -71 -30 l-20 -57 -28 122 c-23 100 -27 134 -21 190 4 37 5 67 2
67 -3 0 -28 -25 -57 -55z"/>
<path d="M116 6723 c-11 -69 -6 -251 9 -320 12 -59 36 -136 60 -195 6 -16 0
-18 -50 -18 -54 0 -60 -2 -99 -41 l-41 -42 43 -18 c25 -11 82 -56 132 -104 88
-85 204 -155 255 -155 15 0 38 26 83 96 l63 96 -30 34 c-60 67 -116 161 -191
318 -43 89 -99 193 -125 231 -27 39 -57 89 -67 113 -10 23 -23 42 -27 42 -5 0
-11 -17 -15 -37z"/>
<path d="M9252 6645 c-40 -63 -90 -161 -113 -218 -65 -165 -135 -285 -235
-403 l-52 -61 39 -59 c22 -33 56 -89 75 -126 32 -63 37 -68 67 -68 39 0 97 26
156 70 l43 32 -23 24 -23 24 26 28 c14 15 50 61 81 103 59 80 114 135 153 149
29 12 30 20 3 49 -43 46 -94 52 -162 17 -26 -13 -47 -22 -47 -19 0 2 13 29 29
61 51 101 63 156 68 317 3 83 1 160 -4 173 -8 21 -16 12 -81 -93z"/>
<path d="M824 6144 c-155 -93 -277 -271 -364 -533 -84 -250 -105 -444 -74
-671 24 -184 23 -337 -4 -412 -11 -32 -35 -78 -52 -102 l-31 -45 43 -23 c55
-28 134 -30 173 -4 33 22 34 31 -16 -109 -26 -73 -32 -106 -33 -175 -1 -101
16 -142 90 -210 l47 -43 24 44 24 44 -7 -207 -6 -208 44 0 c54 0 86 16 113 56
l21 31 28 -23 c15 -13 31 -24 36 -24 30 0 59 118 60 243 0 106 41 56 70 -86
10 -52 38 -141 61 -198 34 -83 43 -117 43 -166 1 -35 2 -63 4 -63 12 0 53 28
83 57 l37 35 12 -39 c18 -53 110 -223 121 -223 19 0 61 112 67 176 2 35 8 64
11 64 4 0 23 -11 43 -25 l37 -25 13 22 c8 14 13 59 13 118 0 83 -4 102 -28
155 -15 32 -39 74 -53 93 -14 18 -24 36 -21 38 10 10 86 -36 141 -87 152 -139
260 -396 227 -542 -16 -75 -60 -140 -115 -172 -50 -29 -113 -41 -136 -26 -12
9 -12 14 3 46 22 46 23 128 1 149 -36 37 -121 7 -159 -56 -31 -52 -28 -158 8
-227 15 -29 27 -55 27 -57 0 -2 -33 -13 -72 -25 -93 -28 -90 -26 -74 -57 35
-67 117 -117 182 -109 l42 4 -5 -32 c-10 -64 39 -160 98 -190 l29 -16 0 34 c0
63 30 136 102 244 87 132 149 261 180 373 20 74 23 107 22 260 0 161 -2 182
-27 263 -15 48 -43 119 -62 157 -19 38 -35 71 -35 73 0 2 26 7 58 10 63 5 112
24 112 42 0 19 -94 117 -183 190 l-85 70 51 25 c28 14 53 31 55 37 5 18 -43
59 -103 88 -29 14 -117 39 -195 56 -154 32 -210 52 -251 91 -30 28 -64 77 -57
83 2 2 28 -2 58 -10 33 -9 101 -15 168 -15 l112 0 0 39 c0 24 -9 51 -25 75
-14 20 -25 38 -25 40 0 2 19 8 43 14 55 14 152 77 196 127 43 50 81 130 81
175 0 19 -8 51 -18 70 -22 45 -95 100 -132 100 -31 0 -100 -52 -100 -75 0 -14
87 -95 101 -95 20 0 -7 -33 -46 -55 -56 -33 -92 -31 -186 10 -47 21 -96 35
-119 35 -47 0 -51 14 -11 35 51 26 51 74 0 100 -47 25 -92 18 -176 -27 -185
-99 -196 -103 -248 -103 -41 0 -61 6 -96 30 l-44 30 65 5 c74 6 97 17 134 61
39 46 34 66 -16 79 -111 27 -222 108 -275 198 -94 159 -83 360 32 600 51 106
84 158 167 260 54 66 57 72 36 72 -13 0 -51 -16 -84 -36z"/>
<path d="M8570 6100 c0 -6 29 -53 64 -105 94 -137 153 -304 176 -498 28 -229
-53 -405 -207 -454 -31 -10 -58 -24 -61 -31 -8 -22 29 -83 63 -104 17 -10 49
-18 73 -18 23 0 42 -3 42 -8 0 -16 -84 -61 -125 -68 -51 -7 -113 17 -178 69
-23 19 -56 42 -74 51 -42 21 -141 21 -171 0 -31 -22 -29 -67 5 -92 31 -23 24
-42 -18 -42 -16 0 -60 -15 -97 -34 -98 -49 -129 -50 -173 -7 -37 37 -36 51 4
79 17 12 45 33 61 46 l29 24 -24 33 c-34 49 -49 58 -93 59 -78 0 -156 -100
-156 -200 0 -104 94 -222 230 -288 l76 -37 -28 -45 c-16 -25 -27 -54 -26 -65
6 -38 110 -45 237 -15 46 11 86 19 88 16 2 -2 -15 -20 -38 -40 -51 -43 -114
-68 -263 -103 -137 -32 -183 -51 -235 -98 -48 -44 -51 -58 -13 -74 66 -29 66
-32 4 -97 -69 -71 -94 -120 -100 -196 -4 -55 -3 -57 22 -64 14 -3 41 -4 60 -2
22 2 32 0 28 -7 -3 -5 -18 -28 -33 -50 -15 -22 -38 -69 -50 -105 -23 -62 -24
-79 -27 -403 l-3 -338 49 -77 c71 -111 111 -194 130 -273 l17 -69 32 20 c42
25 73 87 73 145 0 25 2 45 4 45 1 0 17 -5 35 -11 17 -6 46 -8 65 -5 36 7 116
70 116 92 0 11 -33 37 -88 70 -2 1 8 13 22 27 38 38 68 106 73 166 5 73 -23
123 -89 160 -65 36 -73 26 -73 -97 l0 -97 -40 -3 c-22 -2 -56 1 -75 7 -82 24
-170 138 -170 220 0 135 125 376 264 510 37 35 69 61 71 59 3 -2 -12 -45 -32
-94 -32 -78 -37 -100 -37 -174 -1 -51 5 -98 13 -117 l13 -33 55 50 c30 28 58
50 63 50 4 0 5 -28 3 -63 -7 -77 16 -163 51 -196 l24 -22 26 28 c32 34 96 162
96 191 0 28 10 28 70 -3 l50 -25 -6 38 c-5 31 2 60 34 143 26 66 45 134 51
187 6 45 17 95 25 110 l14 27 6 -35 c6 -35 26 -187 26 -196 0 -3 18 9 39 26
46 37 73 34 91 -10 18 -43 6 -100 -25 -127 -32 -29 -65 -29 -99 -2 l-26 20
-10 -26 c-32 -85 4 -165 75 -165 102 0 192 105 202 235 3 38 -3 102 -16 175
-12 63 -21 123 -21 134 0 19 1 19 23 -2 l23 -22 37 25 c20 14 49 47 64 73 25
42 28 56 28 137 0 61 -8 116 -23 172 -12 45 -22 87 -22 92 0 5 18 7 40 4 45
-6 118 17 144 46 15 16 13 20 -19 51 -43 42 -75 124 -75 192 0 28 9 105 21
172 42 240 13 547 -76 814 -77 230 -208 436 -329 518 -52 35 -76 42 -76 24z"/>
<path d="M1057 6039 c-45 -47 -77 -118 -77 -170 0 -20 10 -35 33 -52 80 -61
267 -133 457 -178 75 -18 126 -23 243 -23 141 -1 147 -2 105 -15 -71 -22 -269
-26 -390 -7 -237 37 -417 97 -498 165 l-35 29 18 84 c9 46 20 93 23 106 9 33
-23 29 -69 -9 -70 -57 -187 -247 -174 -281 9 -24 201 -134 290 -166 45 -16
117 -36 159 -43 42 -7 75 -16 72 -21 -3 -5 -32 -22 -64 -38 -33 -16 -75 -44
-94 -61 -35 -31 -104 -154 -93 -165 15 -15 171 -45 262 -50 97 -6 119 -3 198
31 14 6 17 2 17 -20 0 -19 13 -40 40 -68 49 -48 49 -48 111 68 24 44 54 94 67
112 32 43 111 94 197 128 39 15 96 38 128 52 l57 26 0 178 0 177 -84 -28
c-236 -80 -451 -78 -617 6 -74 37 -160 126 -202 210 l-35 69 -45 -46z"/>
<path d="M4597 5996 c-101 -37 -152 -116 -152 -236 1 -90 23 -139 87 -194 41
-36 118 -66 166 -66 80 0 170 62 208 144 35 74 33 171 -3 237 -58 107 -190
156 -306 115z m150 -67 c63 -24 122 -109 123 -177 0 -70 -53 -136 -133 -161
-69 -23 -163 16 -203 85 -41 69 -27 142 39 205 55 52 118 70 174 48z"/>
<path d="M3800 5869 c-7 -19 -28 -46 -45 -61 -51 -43 -68 -89 -60 -162 8 -80
-5 -95 -60 -71 -22 9 -67 15 -111 15 l-74 0 0 -89 c0 -66 4 -92 15 -101 8 -7
15 -21 15 -31 0 -17 -8 -19 -79 -19 -76 0 -81 -2 -123 -35 -24 -19 -67 -52
-97 -72 -47 -33 -51 -39 -36 -48 10 -5 40 -29 67 -52 65 -57 100 -74 167 -79
117 -10 119 -12 85 -109 -13 -38 -24 -86 -24 -107 l0 -40 93 7 c50 4 106 10
124 15 37 9 39 7 49 -82 8 -69 30 -98 108 -145 l37 -23 44 41 c60 55 82 114
68 181 l-10 50 46 -6 c25 -3 82 -9 126 -12 l81 -7 2 49 c1 26 -5 70 -13 98 -8
27 -15 55 -15 62 0 27 32 44 81 44 55 0 94 16 154 65 22 18 54 41 71 51 l32
19 -65 55 c-110 93 -128 101 -208 98 -80 -3 -77 -7 -57 97 6 28 13 73 15 100
l5 50 -92 3 c-88 3 -95 1 -124 -23 -18 -15 -36 -24 -42 -20 -5 3 -10 35 -10
71 0 72 -6 89 -60 154 -21 25 -44 58 -52 74 l-15 28 -13 -33z m169 -504 l150
-140 -52 -55 c-29 -30 -95 -101 -148 -157 l-95 -102 -149 149 -149 150 35 37
c19 21 82 89 139 151 57 62 107 111 111 110 4 -2 75 -66 158 -143z"/>
<path d="M3722 5307 l-92 -92 100 -100 c54 -54 101 -97 103 -94 2 2 41 46 87
98 l82 94 -93 93 c-52 52 -94 94 -94 94 0 0 -42 -42 -93 -93z"/>
<path d="M2773 4728 c-99 -67 -131 -69 -219 -15 -34 20 -64 37 -68 37 -3 0 -6
-27 -6 -60 0 -41 4 -60 13 -60 6 0 39 -16 72 -36 96 -58 141 -56 231 12 17 13
45 27 62 30 28 6 34 2 79 -56 83 -107 130 -115 267 -45 49 25 97 45 108 45 43
0 92 -36 159 -117 81 -97 125 -123 201 -123 43 0 63 7 108 35 30 19 61 35 70
35 8 0 40 -16 70 -35 43 -28 64 -35 104 -35 75 0 122 29 230 141 128 133 193
158 267 104 90 -64 119 -78 160 -72 21 3 76 27 120 53 114 66 155 69 280 18
128 -53 200 -54 281 -5 67 41 128 95 128 114 0 8 -10 18 -22 24 -18 8 -33 3
-83 -28 -112 -70 -180 -74 -300 -17 -45 20 -90 34 -127 36 -52 4 -67 0 -166
-47 -59 -28 -119 -51 -133 -51 -14 0 -57 20 -97 46 -82 52 -123 62 -189 44
-41 -11 -64 -29 -158 -126 -60 -61 -120 -117 -132 -123 -35 -18 -70 -13 -133
19 -73 37 -103 37 -203 3 -114 -39 -134 -31 -215 77 -103 139 -164 158 -316
95 -93 -38 -150 -44 -182 -17 -12 9 -40 43 -63 74 -69 96 -89 98 -198 26z"/>
<path d="M3254 4034 c-49 -17 -98 -63 -127 -118 -30 -58 -30 -175 0 -232 28
-53 92 -110 140 -123 209 -58 370 111 309 323 -21 70 -84 139 -142 155 -53 15
-130 12 -180 -5z m159 -78 c72 -30 117 -113 103 -194 -15 -97 -126 -157 -229
-123 -77 26 -128 121 -108 198 29 106 136 160 234 119z"/>
<path d="M1810 2412 c0 -192 64 -357 186 -479 40 -40 69 -73 65 -73 -5 0 -28
7 -51 15 -23 8 -54 15 -67 15 -22 0 -24 -3 -18 -27 15 -62 55 -121 147 -219
118 -126 170 -200 192 -271 12 -38 -24 -63 -89 -63 -55 0 -55 0 -49 -27 20
-86 90 -136 159 -113 88 29 138 107 133 206 -3 61 -2 64 20 64 29 0 30 36 2
91 l-21 40 38 -8 c79 -17 363 1 363 22 0 15 -47 85 -69 103 -33 26 -108 60
-193 88 -49 15 -88 31 -88 34 0 3 13 13 28 22 44 26 124 116 120 136 -3 13
-21 20 -82 29 -43 7 -80 14 -82 16 -2 2 16 34 40 70 29 43 47 82 50 109 9 75
13 158 7 158 -3 0 -44 -40 -91 -89 -99 -104 -129 -117 -248 -108 -129 10 -204
60 -267 181 -43 82 -109 176 -122 176 -10 0 -13 -26 -13 -98z"/>
</g>
</svg>
